<?xml version="1.0" standalone="no"?>
<!DOCTYPE svg PUBLIC "-//W3C//DTD SVG 20010904//EN"
 "http://www.w3.org/TR/2001/REC-SVG-20010904/DTD/svg10.dtd">
<svg version="1.0" xmlns="http://www.w3.org/2000/svg"
 width="800.000000pt" height="800.000000pt" viewBox="0 0 800.000000 800.000000"
 preserveAspectRatio="xMidYMid meet">
<metadata>
Created by potrace 1.14, written by Peter Selinger 2001-2017
</metadata>
<g transform="translate(0.000000,800.000000) scale(0.100000,-0.100000)"
fill="#000000" stroke="none">
<path d="M0 4000 l0 -2670 4000 0 4000 0 0 2670 0 2670 -4000 0 -4000 0 0
-2670z m7990 0 l0 -2660 -3990 0 -3990 0 0 2660 0 2660 3990 0 3990 0 0 -2660z"/>
<path d="M1917 6043 c-222 -345 -663 -1022 -675 -1036 -8 -9 -13 -19 -11 -21
11 -11 161 -106 167 -106 8 0 736 1120 731 1123 -26 17 -120 78 -141 91 l-27
18 -44 -69z"/>
<path d="M5952 6041 c-90 -60 -88 -57 -70 -78 8 -10 77 -115 153 -233 76 -118
142 -219 146 -224 10 -12 171 93 167 109 -6 24 -303 475 -313 474 -5 0 -43
-22 -83 -48z"/>
<path d="M2196 5862 c-23 -37 -184 -285 -357 -552 -173 -267 -318 -490 -322
-497 -4 -7 23 -30 72 -62 44 -28 84 -51 88 -51 9 0 727 1103 726 1116 0 4 -37
31 -82 61 l-81 53 -44 -68z"/>
<path d="M5672 5873 l-83 -55 18 -27 c456 -704 710 -1091 716 -1091 4 0 44 23
88 51 76 49 79 52 66 73 -8 11 -168 260 -357 551 -189 292 -348 535 -354 541
-8 9 -33 -3 -94 -43z"/>
<path d="M5420 5700 c-41 -28 -79 -51 -84 -53 -10 -3 286 -466 307 -481 13 -9
165 81 166 98 1 9 -282 451 -303 473 -9 10 -28 2 -86 -37z"/>
<path d="M2157 5189 c-197 -303 -359 -555 -360 -561 -1 -5 35 -33 80 -63 l82
-54 358 551 c197 303 361 557 365 564 6 8 -18 29 -71 63 -44 28 -84 51 -89 51
-4 0 -169 -248 -365 -551z"/>
<path d="M6364 5409 c-44 -28 -80 -52 -82 -54 -3 -3 295 -465 312 -482 8 -9
29 1 86 38 41 27 79 50 84 52 9 3 -304 496 -315 497 -4 0 -42 -23 -85 -51z"/>
<path d="M3795 5326 c-565 -93 -1000 -518 -1112 -1083 -23 -120 -23 -357 1
-477 53 -270 166 -491 349 -682 202 -212 424 -335 710 -395 133 -28 360 -31
491 -5 204 40 407 127 557 240 108 82 252 232 319 333 98 148 171 329 206 510
24 119 24 356 1 476 -107 539 -513 956 -1047 1072 -102 22 -370 28 -475 11z"/>
<path d="M5820 5059 c-41 -27 -75 -52 -74 -55 1 -14 310 -484 317 -484 6 0
131 80 165 105 1 1 -37 62 -86 136 -48 74 -119 182 -157 242 -38 59 -74 107
-80 106 -5 0 -44 -23 -85 -50z"/>
<path d="M5885 3229 c-85 -131 -155 -242 -155 -246 0 -8 161 -116 165 -111 12
14 306 472 308 480 1 5 -35 34 -80 64 l-82 53 -156 -240z"/>
<path d="M1900 3390 c-41 -28 -74 -57 -74 -64 1 -12 692 -1086 714 -1109 10
-12 171 95 165 110 -7 21 -718 1113 -724 1113 -3 0 -40 -23 -81 -50z"/>
<path d="M6165 3049 c-82 -127 -151 -237 -153 -244 -3 -11 154 -122 162 -114
4 4 293 450 309 475 6 11 -137 114 -159 114 -5 0 -76 -104 -159 -231z"/>
<path d="M1618 3207 c-43 -29 -77 -57 -75 -63 4 -21 302 -474 311 -474 9 0
166 99 166 105 0 1 -40 63 -88 136 -48 74 -119 182 -157 242 -38 59 -72 107
-75 106 -3 0 -40 -24 -82 -52z"/>
<path d="M6445 2869 c-82 -127 -151 -237 -153 -244 -3 -11 155 -121 163 -113
8 8 306 471 308 478 2 8 -147 110 -161 110 -4 0 -74 -104 -157 -231z"/>
<path d="M1338 3027 c-51 -34 -76 -57 -73 -66 6 -15 702 -1090 716 -1105 11
-12 171 93 165 109 -9 23 -719 1115 -725 1114 -3 0 -41 -24 -83 -52z"/>
<path d="M5485 2613 c-77 -119 -148 -228 -158 -243 l-18 -28 80 -51 c44 -28
84 -51 88 -51 5 0 40 48 78 108 38 59 109 167 157 241 48 73 88 135 88 136 0
6 -157 105 -166 105 -5 0 -72 -98 -149 -217z"/>
<path d="M5751 2411 c-85 -131 -154 -242 -154 -247 0 -4 37 -31 81 -60 l81
-53 78 120 c43 66 115 176 161 246 45 70 79 130 75 133 -17 15 -154 100 -161
100 -4 0 -76 -108 -161 -239z"/>
<path d="M2028 2570 c-43 -27 -78 -52 -78 -55 0 -10 311 -485 318 -485 10 0
162 102 162 109 -1 12 -305 474 -315 478 -6 2 -45 -19 -87 -47z"/>
<path d="M6026 2223 c-88 -136 -156 -248 -150 -250 5 -2 43 -25 84 -53 58 -38
77 -47 86 -37 21 23 304 466 304 476 0 7 -153 112 -163 111 -1 0 -74 -111
-161 -247z"/>
</g>
</svg>
